<?xml version="1.0" standalone="no"?>
<svg xmlns:xlink="http://www.w3.org/1999/xlink" id="wave" style="transform:rotate(0deg); transition: 0.3s" viewBox="0 0 1440 490" version="1.1" xmlns="http://www.w3.org/2000/svg"><defs><linearGradient id="sw-gradient-0" x1="0" x2="0" y1="1" y2="0"><stop stop-color="rgba(62, 227.672, 243, 1)" offset="0%"/><stop stop-color="rgba(11, 135, 255, 1)" offset="100%"/></linearGradient></defs><path style="transform:translate(0, 0px); opacity:1" fill="url(#sw-gradient-0)" d="M0,294L21.8,269.5C43.6,245,87,196,131,204.2C174.5,212,218,278,262,318.5C305.5,359,349,376,393,375.7C436.4,376,480,359,524,367.5C567.3,376,611,408,655,392C698.2,376,742,310,785,294C829.1,278,873,310,916,277.7C960,245,1004,147,1047,89.8C1090.9,33,1135,16,1178,8.2C1221.8,0,1265,0,1309,65.3C1352.7,131,1396,261,1440,294C1483.6,327,1527,261,1571,269.5C1614.5,278,1658,359,1702,367.5C1745.5,376,1789,310,1833,236.8C1876.4,163,1920,82,1964,40.8C2007.3,0,2051,0,2095,40.8C2138.2,82,2182,163,2225,220.5C2269.1,278,2313,310,2356,318.5C2400,327,2444,310,2487,261.3C2530.9,212,2575,131,2618,106.2C2661.8,82,2705,114,2749,114.3C2792.7,114,2836,82,2880,130.7C2923.6,180,2967,310,3011,375.7C3054.5,441,3098,441,3120,441L3141.8,441L3141.8,490L3120,490C3098.2,490,3055,490,3011,490C2967.3,490,2924,490,2880,490C2836.4,490,2793,490,2749,490C2705.5,490,2662,490,2618,490C2574.5,490,2531,490,2487,490C2443.6,490,2400,490,2356,490C2312.7,490,2269,490,2225,490C2181.8,490,2138,490,2095,490C2050.9,490,2007,490,1964,490C1920,490,1876,490,1833,490C1789.1,490,1745,490,1702,490C1658.2,490,1615,490,1571,490C1527.3,490,1484,490,1440,490C1396.4,490,1353,490,1309,490C1265.5,490,1222,490,1178,490C1134.5,490,1091,490,1047,490C1003.6,490,960,490,916,490C872.7,490,829,490,785,490C741.8,490,698,490,655,490C610.9,490,567,490,524,490C480,490,436,490,393,490C349.1,490,305,490,262,490C218.2,490,175,490,131,490C87.3,490,44,490,22,490L0,490Z"/></svg>